<svg width="103" height="82" viewBox="0 0 103 82" fill="none" xmlns="http://www.w3.org/2000/svg">
<path d="M7.232 70.32C7.15733 69.7547 7.00267 69.264 6.768 68.848C6.53333 68.4213 6.21867 68.096 5.824 67.872C5.44 67.6373 4.976 67.52 4.432 67.52C3.90933 67.52 3.472 67.6693 3.12 67.968C2.77867 68.2667 2.608 68.6347 2.608 69.072C2.608 69.4347 2.70933 69.7493 2.912 70.016C3.12533 70.2827 3.42933 70.528 3.824 70.752C4.21867 70.9653 4.688 71.1893 5.232 71.424C5.63733 71.5947 6.048 71.7867 6.464 72C6.88 72.2027 7.264 72.448 7.616 72.736C7.968 73.024 8.25067 73.36 8.464 73.744C8.688 74.1173 8.8 74.5653 8.8 75.088C8.8 75.7067 8.63467 76.256 8.304 76.736C7.984 77.216 7.52533 77.5893 6.928 77.856C6.33067 78.1227 5.62667 78.256 4.816 78.256C4.368 78.256 3.89333 78.1867 3.392 78.048C2.89067 77.92 2.432 77.7227 2.016 77.456L2.064 78.144H0.976L0.944 74.512H1.856C1.97333 75.4187 2.30933 76.1067 2.864 76.576C3.41867 77.0347 4.08533 77.264 4.864 77.264C5.25867 77.264 5.61067 77.1947 5.92 77.056C6.22933 76.9067 6.46933 76.7093 6.64 76.464C6.82133 76.208 6.912 75.92 6.912 75.6C6.912 75.184 6.784 74.8427 6.528 74.576C6.272 74.3093 5.94667 74.08 5.552 73.888C5.15733 73.696 4.74667 73.5093 4.32 73.328C3.84 73.1253 3.38667 72.912 2.96 72.688C2.53333 72.4533 2.15467 72.192 1.824 71.904C1.504 71.6053 1.248 71.264 1.056 70.88C0.874667 70.496 0.784 70.0427 0.784 69.52C0.784 69.2107 0.842667 68.8853 0.96 68.544C1.07733 68.192 1.26933 67.8667 1.536 67.568C1.81333 67.2693 2.18133 67.024 2.64 66.832C3.09867 66.64 3.66933 66.544 4.352 66.544C4.77867 66.544 5.24267 66.608 5.744 66.736C6.256 66.8533 6.704 67.0507 7.088 67.328L7.024 66.656H8.128V70.32H7.232ZM9.95325 78V77.152C10.2626 77.152 10.4813 77.088 10.6093 76.96C10.7373 76.8213 10.8173 76.6293 10.8493 76.384C10.8813 76.1387 10.8973 75.8613 10.8973 75.552V72.544C10.8973 72.352 10.9026 72.1493 10.9133 71.936C10.9239 71.7227 10.9399 71.504 10.9613 71.28C10.7799 71.2907 10.5826 71.3013 10.3693 71.312C10.1559 71.3227 9.97992 71.3333 9.84125 71.344V70.304C10.3213 70.304 10.7159 70.2827 11.0253 70.24C11.3346 70.1867 11.5746 70.1227 11.7453 70.048C11.9159 69.9733 12.0386 69.904 12.1133 69.84H12.7853C12.8066 69.9467 12.8173 70.08 12.8173 70.24C12.8279 70.3893 12.8386 70.528 12.8493 70.656C13.2013 70.3787 13.5853 70.16 14.0013 70C14.4173 69.8293 14.8226 69.744 15.2173 69.744C15.7186 69.744 16.1346 69.8347 16.4653 70.016C16.8066 70.1973 17.0733 70.4587 17.2653 70.8C17.6386 70.4907 18.0599 70.24 18.5293 70.048C18.9986 69.8453 19.4519 69.744 19.8893 69.744C20.7746 69.744 21.4359 70.0053 21.8733 70.528C22.3213 71.04 22.5399 71.9147 22.5293 73.152V75.712C22.5293 75.8827 22.5239 76.0907 22.5133 76.336C22.5026 76.5707 22.4866 76.8 22.4653 77.024C22.6359 77.0027 22.8173 76.992 23.0093 76.992C23.2013 76.9813 23.3613 76.976 23.4893 76.976V78H19.6973V77.152C19.9746 77.152 20.1719 77.088 20.2893 76.96C20.4066 76.8213 20.4759 76.6293 20.4973 76.384C20.5293 76.1387 20.5453 75.8613 20.5453 75.552V73.168C20.5453 72.4 20.4226 71.8507 20.1773 71.52C19.9319 71.1893 19.5853 71.024 19.1373 71.024C18.8386 71.0133 18.5506 71.072 18.2733 71.2C18.0066 71.3173 17.7719 71.4613 17.5693 71.632C17.6226 71.8347 17.6599 72.0533 17.6813 72.288C17.7026 72.5227 17.7133 72.7733 17.7133 73.04C17.7133 73.488 17.7133 73.936 17.7133 74.384C17.7133 74.8213 17.7079 75.264 17.6973 75.712C17.6973 75.8827 17.6919 76.0907 17.6813 76.336C17.6813 76.5707 17.6653 76.8 17.6333 77.024C17.8039 77.0027 17.9853 76.992 18.1773 76.992C18.3693 76.9813 18.5346 76.976 18.6733 76.976V78H14.8333V77.152C15.1213 77.152 15.3239 77.088 15.4413 76.96C15.5693 76.8213 15.6493 76.6293 15.6813 76.384C15.7133 76.1387 15.7293 75.8613 15.7293 75.552V73.136C15.7293 72.368 15.6119 71.824 15.3773 71.504C15.1533 71.1733 14.8173 71.0027 14.3693 70.992C14.0813 70.992 13.8039 71.056 13.5373 71.184C13.2813 71.312 13.0573 71.4667 12.8653 71.648C12.8653 71.7867 12.8653 71.9253 12.8653 72.064C12.8653 72.192 12.8653 72.3253 12.8653 72.464V75.712C12.8653 75.8827 12.8599 76.0907 12.8493 76.336C12.8493 76.5707 12.8333 76.8 12.8013 77.024C12.9719 77.0027 13.1426 76.992 13.3133 76.992C13.4946 76.9813 13.6493 76.976 13.7773 76.976V78H9.95325ZM29.1234 78C29.0914 77.84 29.07 77.7067 29.0594 77.6C29.0594 77.4827 29.054 77.3493 29.0434 77.2C28.6807 77.5627 28.2914 77.8293 27.8754 78C27.47 78.1707 27.0487 78.256 26.6114 78.256C25.886 78.256 25.326 78.0587 24.9314 77.664C24.5474 77.2693 24.3554 76.784 24.3554 76.208C24.3554 75.696 24.494 75.264 24.7714 74.912C25.0487 74.5493 25.4114 74.256 25.8594 74.032C26.3074 73.7973 26.8034 73.6213 27.3474 73.504C27.8914 73.376 28.43 73.3067 28.9634 73.296V72.416C28.9634 72.1067 28.926 71.824 28.8514 71.568C28.7874 71.3013 28.6647 71.0933 28.4834 70.944C28.302 70.784 28.0354 70.704 27.6834 70.704C27.4487 70.7147 27.2087 70.768 26.9634 70.864C26.7287 70.9493 26.542 71.088 26.4034 71.28C26.4887 71.376 26.542 71.4827 26.5634 71.6C26.5847 71.7067 26.5954 71.8027 26.5954 71.888C26.5954 72.08 26.5207 72.2827 26.3714 72.496C26.222 72.6987 25.982 72.7947 25.6514 72.784C25.3634 72.7733 25.1394 72.672 24.9794 72.48C24.83 72.288 24.7554 72.0587 24.7554 71.792C24.7554 71.3867 24.8994 71.0347 25.1874 70.736C25.486 70.4267 25.886 70.1867 26.3874 70.016C26.8887 69.8347 27.4487 69.744 28.0674 69.744C28.9847 69.744 29.6887 69.984 30.1794 70.464C30.67 70.944 30.91 71.712 30.8994 72.768C30.8994 73.1413 30.8994 73.4827 30.8994 73.792C30.8994 74.0907 30.894 74.3947 30.8834 74.704C30.8834 75.0027 30.8834 75.3387 30.8834 75.712C30.8834 75.872 30.878 76.0747 30.8674 76.32C30.8567 76.5547 30.8407 76.7893 30.8194 77.024C31.0114 77.0027 31.2034 76.992 31.3954 76.992C31.598 76.9813 31.7634 76.9707 31.8914 76.96V78H29.1234ZM28.9474 74.24C28.6274 74.2613 28.3127 74.3147 28.0034 74.4C27.694 74.4747 27.4167 74.5813 27.1714 74.72C26.926 74.8587 26.7287 75.0347 26.5794 75.248C26.4407 75.4507 26.3767 75.6853 26.3874 75.952C26.398 76.2827 26.5047 76.528 26.7074 76.688C26.91 76.8373 27.1447 76.912 27.4114 76.912C27.7207 76.912 27.998 76.848 28.2434 76.72C28.4994 76.592 28.734 76.4213 28.9474 76.208C28.9474 76.1013 28.9474 75.9893 28.9474 75.872C28.9474 75.7547 28.9474 75.6373 28.9474 75.52C28.9474 75.3707 28.9474 75.184 28.9474 74.96C28.9474 74.736 28.9474 74.496 28.9474 74.24ZM32.8751 77.152C33.1845 77.152 33.4031 77.088 33.5311 76.96C33.6591 76.8213 33.7391 76.6293 33.7711 76.384C33.8031 76.1387 33.8191 75.8613 33.8191 75.552V72.544C33.8191 72.352 33.8245 72.1493 33.8351 71.936C33.8458 71.7227 33.8618 71.504 33.8831 71.28C33.7018 71.2907 33.5045 71.3013 33.2911 71.312C33.0778 71.312 32.9018 71.3173 32.7631 71.328V70.304H33.3551C33.7818 70.304 34.1391 70.256 34.4271 70.16C34.7151 70.0533 34.9178 69.9467 35.0351 69.84H35.7071C35.7285 69.968 35.7445 70.1707 35.7551 70.448C35.7658 70.7253 35.7711 71.0027 35.7711 71.28C36.0165 70.96 36.2725 70.688 36.5391 70.464C36.8058 70.2293 37.0778 70.0533 37.3551 69.936C37.6431 69.808 37.9365 69.744 38.2351 69.744C38.5765 69.744 38.8751 69.84 39.1311 70.032C39.3978 70.224 39.5311 70.5333 39.5311 70.96C39.5311 71.0987 39.4938 71.248 39.4191 71.408C39.3551 71.568 39.2485 71.7013 39.0991 71.808C38.9605 71.9147 38.7685 71.968 38.5231 71.968C38.2991 71.968 38.0858 71.8987 37.8831 71.76C37.6911 71.6107 37.5898 71.376 37.5791 71.056C37.3551 71.0453 37.1205 71.1253 36.8751 71.296C36.6405 71.4667 36.4271 71.6747 36.2351 71.92C36.0431 72.1653 35.8938 72.416 35.7871 72.672L35.8031 75.712C35.8031 75.8827 35.7978 76.0907 35.7871 76.336C35.7765 76.5707 35.7605 76.8 35.7391 77.024C35.9098 77.0027 36.0911 76.992 36.2831 76.992C36.4751 76.9813 36.6351 76.976 36.7631 76.976V78H32.8751V77.152ZM43.4483 78.256C43.1496 78.256 42.8563 78.2187 42.5683 78.144C42.2909 78.0693 42.0349 77.9307 41.8003 77.728C41.5763 77.5253 41.3949 77.2267 41.2563 76.832C41.1176 76.4267 41.0483 75.8933 41.0483 75.232L41.0803 71.104L39.9443 71.12V70C40.2643 69.9893 40.5736 69.8827 40.8723 69.68C41.1709 69.4667 41.4323 69.1893 41.6562 68.848C41.8803 68.5067 42.0296 68.144 42.1043 67.76H43.0803L43.0643 70H45.3203V71.024L43.0643 71.072L43.0483 75.184C43.0483 75.504 43.0749 75.8027 43.1283 76.08C43.1923 76.3467 43.2989 76.56 43.4483 76.72C43.6083 76.88 43.8216 76.96 44.0883 76.96C44.2909 76.96 44.5203 76.896 44.7763 76.768C45.0429 76.64 45.3096 76.384 45.5763 76L46.2323 76.592C45.9656 76.9973 45.6883 77.312 45.4003 77.536C45.1229 77.76 44.8509 77.9253 44.5843 78.032C44.3283 78.1387 44.0989 78.2027 43.8963 78.224C43.6936 78.2453 43.5443 78.256 43.4483 78.256Z" fill="#1F7A48" fill-opacity="0.8"/>
<path d="M52.141 78.256C50.989 78.256 50.0077 78.0053 49.197 77.504C48.3863 76.992 47.7677 76.304 47.341 75.44C46.9143 74.576 46.701 73.616 46.701 72.56C46.701 71.8347 46.813 71.1147 47.037 70.4C47.2717 69.6853 47.6183 69.04 48.077 68.464C48.5357 67.8773 49.1117 67.4133 49.805 67.072C50.509 66.72 51.325 66.544 52.253 66.544C52.541 66.544 52.8663 66.576 53.229 66.64C53.5917 66.6933 53.9543 66.7787 54.317 66.896C54.6903 67.0133 55.021 67.1573 55.309 67.328L55.245 66.656H56.477V70.384H55.437C55.341 69.7867 55.1543 69.2907 54.877 68.896C54.5997 68.5013 54.253 68.2027 53.837 68C53.421 67.7973 52.9623 67.696 52.461 67.696C51.9063 67.696 51.421 67.824 51.005 68.08C50.5997 68.336 50.2637 68.6773 49.997 69.104C49.7303 69.5307 49.5277 70.016 49.389 70.56C49.261 71.104 49.197 71.664 49.197 72.24C49.197 73.1573 49.325 73.9733 49.581 74.688C49.837 75.4027 50.2103 75.968 50.701 76.384C51.2023 76.7893 51.8157 76.992 52.541 76.992C52.7437 76.992 52.9837 76.976 53.261 76.944C53.5383 76.912 53.8157 76.864 54.093 76.8C54.3703 76.736 54.605 76.656 54.797 76.56V75.072C54.797 74.784 54.8023 74.5067 54.813 74.24C54.8343 73.9733 54.8503 73.7707 54.861 73.632C54.6903 73.6427 54.477 73.6533 54.221 73.664C53.965 73.664 53.7783 73.6693 53.661 73.68V72.448H57.917V73.504C57.7357 73.5147 57.5757 73.536 57.437 73.568C57.309 73.6 57.197 73.664 57.101 73.76C57.0157 73.8453 56.9517 73.9787 56.909 74.16C56.8663 74.3413 56.845 74.5867 56.845 74.896V77.456H56.461C56.1517 77.456 55.8423 77.4987 55.533 77.584C55.2237 77.6693 54.893 77.7653 54.541 77.872C54.2103 77.968 53.8477 78.0533 53.453 78.128C53.0583 78.2133 52.621 78.256 52.141 78.256ZM63.2915 78C63.2702 77.8507 63.2542 77.728 63.2435 77.632C63.2435 77.5253 63.2382 77.4027 63.2275 77.264C62.8648 77.6267 62.4808 77.8827 62.0755 78.032C61.6702 78.1813 61.2595 78.256 60.8435 78.256C60.1608 78.256 59.6275 78.0533 59.2435 77.648C58.8595 77.2427 58.6675 76.736 58.6675 76.128C58.6675 75.616 58.7955 75.1787 59.0515 74.816C59.3182 74.4533 59.6648 74.16 60.0915 73.936C60.5288 73.7013 61.0088 73.5253 61.5315 73.408C62.0648 73.28 62.5982 73.2053 63.1315 73.184V72.352C63.1315 72.0747 63.0942 71.824 63.0195 71.6C62.9555 71.376 62.8382 71.2 62.6675 71.072C62.5075 70.944 62.2782 70.8853 61.9795 70.896C61.7768 70.9067 61.5795 70.9493 61.3875 71.024C61.1955 71.0987 61.0302 71.2053 60.8915 71.344C60.9768 71.44 61.0302 71.5467 61.0515 71.664C61.0728 71.7707 61.0835 71.8667 61.0835 71.952C61.0835 72.1653 60.9982 72.3893 60.8275 72.624C60.6568 72.848 60.3848 72.9547 60.0115 72.944C59.6915 72.9333 59.4462 72.8213 59.2755 72.608C59.1048 72.3947 59.0195 72.144 59.0195 71.856C59.0195 71.4293 59.1688 71.0613 59.4675 70.752C59.7768 70.432 60.1875 70.1867 60.6995 70.016C61.2115 69.8347 61.7768 69.744 62.3955 69.744C63.3342 69.744 64.0595 69.9893 64.5715 70.48C65.0942 70.96 65.3555 71.7333 65.3555 72.8C65.3555 73.1627 65.3555 73.472 65.3555 73.728C65.3555 73.984 65.3502 74.24 65.3395 74.496C65.3395 74.752 65.3395 75.0613 65.3395 75.424C65.3395 75.5733 65.3342 75.7867 65.3235 76.064C65.3128 76.3307 65.2968 76.5867 65.2755 76.832C65.4568 76.8107 65.6488 76.8 65.8515 76.8C66.0542 76.7893 66.2088 76.784 66.3155 76.784V78H63.2915ZM63.1155 74.32C62.8168 74.352 62.5342 74.4053 62.2675 74.48C62.0008 74.5547 61.7662 74.656 61.5635 74.784C61.3715 74.912 61.2168 75.0667 61.0995 75.248C60.9928 75.4293 60.9395 75.632 60.9395 75.856C60.9502 76.1547 61.0462 76.368 61.2275 76.496C61.4088 76.624 61.6168 76.688 61.8515 76.688C62.0968 76.688 62.3262 76.6347 62.5395 76.528C62.7528 76.4213 62.9448 76.2827 63.1155 76.112C63.1155 76.0053 63.1155 75.904 63.1155 75.808C63.1155 75.7013 63.1155 75.5947 63.1155 75.488C63.1155 75.296 63.1155 75.104 63.1155 74.912C63.1155 74.7093 63.1155 74.512 63.1155 74.32ZM67.2341 76.96C67.5328 76.96 67.7461 76.9013 67.8741 76.784C68.0021 76.6667 68.0821 76.5013 68.1141 76.288C68.1568 76.064 68.1781 75.8133 68.1781 75.536V72.848C68.1781 72.656 68.1835 72.4427 68.1941 72.208C68.2048 71.9627 68.2208 71.7227 68.2421 71.488C68.0715 71.4987 67.8688 71.5093 67.6341 71.52C67.4101 71.52 67.2395 71.5253 67.1221 71.536V70.32H67.7621C68.1781 70.32 68.5568 70.2667 68.8981 70.16C69.2501 70.0533 69.4795 69.9467 69.5861 69.84H70.3701C70.3915 69.9467 70.4075 70.1493 70.4181 70.448C70.4288 70.736 70.4341 70.992 70.4341 71.216C70.7221 70.864 70.9941 70.5813 71.2501 70.368C71.5061 70.1547 71.7568 70 72.0021 69.904C72.2581 69.7973 72.5141 69.744 72.7701 69.744C73.1435 69.744 73.4688 69.8507 73.7461 70.064C74.0235 70.2667 74.1621 70.6027 74.1621 71.072C74.1621 71.232 74.1248 71.4027 74.0501 71.584C73.9755 71.7547 73.8581 71.8987 73.6981 72.016C73.5381 72.1333 73.3195 72.192 73.0421 72.192C72.8288 72.192 72.6101 72.128 72.3861 72C72.1621 71.872 72.0341 71.6267 72.0021 71.264C71.7888 71.264 71.5755 71.3547 71.3621 71.536C71.1488 71.7067 70.9568 71.9147 70.7861 72.16C70.6261 72.3947 70.5141 72.6133 70.4501 72.816V75.424C70.4501 75.5733 70.4448 75.7867 70.4341 76.064C70.4235 76.3307 70.4075 76.5867 70.3861 76.832C70.5568 76.8107 70.7435 76.8 70.9461 76.8C71.1595 76.7893 71.3195 76.784 71.4261 76.784V78H67.2341V76.96ZM77.8846 78.256C77.2446 78.256 76.6793 78.0907 76.1886 77.76C75.7086 77.4293 75.33 76.96 75.0526 76.352C74.786 75.744 74.6526 75.0293 74.6526 74.208C74.6526 73.344 74.818 72.576 75.1486 71.904C75.4793 71.232 75.9433 70.704 76.5406 70.32C77.138 69.936 77.8313 69.744 78.6206 69.744C78.9086 69.744 79.1646 69.776 79.3886 69.84C79.6233 69.8933 79.842 69.9573 80.0446 70.032V68.976C80.0446 68.8267 80.05 68.6133 80.0606 68.336C80.0713 68.0587 80.0873 67.8027 80.1086 67.568C79.938 67.5787 79.7353 67.5893 79.5006 67.6C79.266 67.6107 79.09 67.616 78.9726 67.616V66.4C79.474 66.4 79.89 66.3733 80.2206 66.32C80.562 66.2667 80.8286 66.2027 81.0206 66.128C81.2233 66.0533 81.362 65.984 81.4366 65.92H82.3006V75.424C82.3006 75.5733 82.2953 75.7867 82.2846 76.064C82.274 76.3307 82.258 76.5867 82.2366 76.832C82.418 76.8107 82.61 76.8 82.8126 76.8C83.0153 76.7893 83.17 76.784 83.2766 76.784V78H80.2366C80.226 77.8827 80.21 77.76 80.1886 77.632C80.178 77.504 80.162 77.3813 80.1406 77.264C79.7886 77.6267 79.426 77.8827 79.0526 78.032C78.6793 78.1813 78.29 78.256 77.8846 78.256ZM78.7166 76.8C78.994 76.8 79.25 76.7307 79.4846 76.592C79.7193 76.4427 79.906 76.256 80.0446 76.032C80.0446 75.872 80.0446 75.712 80.0446 75.552C80.0446 75.392 80.0446 75.232 80.0446 75.072V71.232C79.938 71.1467 79.778 71.0773 79.5646 71.024C79.3513 70.96 79.1326 70.928 78.9086 70.928C78.418 70.9387 78.034 71.0933 77.7566 71.392C77.4793 71.6907 77.282 72.0693 77.1646 72.528C77.058 72.9867 77.0046 73.4667 77.0046 73.968C77.0046 74.416 77.058 74.8587 77.1646 75.296C77.282 75.7333 77.4633 76.096 77.7086 76.384C77.9646 76.6613 78.3006 76.8 78.7166 76.8ZM88.1199 78.256C87.3412 78.256 86.6532 78.0853 86.0559 77.744C85.4585 77.392 84.9945 76.9013 84.6639 76.272C84.3332 75.632 84.1679 74.88 84.1679 74.016C84.1679 73.2693 84.3332 72.5707 84.6639 71.92C84.9945 71.2693 85.4585 70.7467 86.0559 70.352C86.6639 69.9467 87.3679 69.744 88.1679 69.744C88.6159 69.744 89.0532 69.808 89.4799 69.936C89.9065 70.0533 90.2905 70.2613 90.6319 70.56C90.9839 70.8587 91.2612 71.264 91.4639 71.776C91.6772 72.288 91.7785 72.928 91.7679 73.696L86.5199 73.792C86.5199 74.368 86.5892 74.8853 86.7279 75.344C86.8772 75.8027 87.1172 76.1653 87.4479 76.432C87.7785 76.6987 88.2212 76.832 88.7759 76.832C88.9892 76.832 89.2292 76.7947 89.4959 76.72C89.7732 76.6453 90.0505 76.5227 90.3279 76.352C90.6159 76.1707 90.8825 75.9307 91.1279 75.632L91.8479 76.304C91.4639 76.848 91.0532 77.264 90.6159 77.552C90.1785 77.8293 89.7412 78.016 89.3039 78.112C88.8772 78.208 88.4825 78.256 88.1199 78.256ZM86.6159 72.672H89.5599C89.5492 72.224 89.4852 71.872 89.3679 71.616C89.2612 71.3493 89.1119 71.1573 88.9199 71.04C88.7279 70.9227 88.5039 70.864 88.2479 70.864C87.7785 70.864 87.4105 71.0347 87.1439 71.376C86.8772 71.7067 86.7012 72.1387 86.6159 72.672ZM92.9373 78V76.96C93.2359 76.96 93.4493 76.9013 93.5773 76.784C93.7053 76.6667 93.7853 76.5013 93.8173 76.288C93.8599 76.064 93.8813 75.8133 93.8813 75.536V72.848C93.8813 72.656 93.8866 72.4427 93.8973 72.208C93.9079 71.9627 93.9239 71.7227 93.9453 71.488C93.7746 71.4987 93.5719 71.5093 93.3372 71.52C93.1133 71.52 92.9426 71.5253 92.8253 71.536V70.32C93.3159 70.32 93.7319 70.2933 94.0733 70.24C94.4146 70.1867 94.6813 70.1227 94.8733 70.048C95.0759 69.9733 95.2146 69.904 95.2893 69.84H96.0733C96.0946 69.9787 96.1053 70.08 96.1053 70.144C96.1053 70.208 96.1053 70.272 96.1053 70.336C96.1159 70.3893 96.1373 70.4907 96.1693 70.64C96.3826 70.4693 96.6279 70.32 96.9053 70.192C97.1826 70.0533 97.4599 69.9467 97.7373 69.872C98.0146 69.7867 98.2599 69.744 98.4733 69.744C99.4546 69.744 100.148 70.0267 100.553 70.592C100.969 71.1467 101.177 72.0427 101.177 73.28V75.424C101.177 75.5733 101.172 75.7867 101.161 76.064C101.151 76.3307 101.135 76.5867 101.113 76.832C101.295 76.8107 101.487 76.8 101.689 76.8C101.892 76.7893 102.047 76.784 102.153 76.784V78H97.9613V76.96C98.2599 76.96 98.4733 76.9013 98.6013 76.784C98.7399 76.6667 98.8253 76.5013 98.8573 76.288C98.8999 76.064 98.9213 75.8133 98.9213 75.536L98.9053 73.264C98.9053 72.5707 98.8039 72.0587 98.6013 71.728C98.4093 71.3867 98.0786 71.216 97.6093 71.216C97.3426 71.216 97.0759 71.2747 96.8093 71.392C96.5533 71.5093 96.3346 71.648 96.1533 71.808C96.1533 71.9573 96.1533 72.112 96.1533 72.272C96.1533 72.4213 96.1533 72.5707 96.1533 72.72V75.424C96.1533 75.5733 96.1479 75.7867 96.1373 76.064C96.1266 76.3307 96.1106 76.5867 96.0893 76.832C96.2599 76.8107 96.4466 76.8 96.6493 76.8C96.8626 76.7893 97.0226 76.784 97.1293 76.784V78H92.9373Z" fill="#34CB78"/>
<line x1="27" y1="55.5" x2="77" y2="55.5" stroke="#34CB78"/>
<path d="M77.3875 25.5462C78.783 25.3802 79.9773 25.1119 80.7085 24.6904C82.1634 23.8375 83.2219 22.4437 83.653 20.8133C84.084 19.1828 83.8527 17.448 83.0095 15.9875C82.1662 14.527 80.7795 13.4593 79.1519 13.0174C77.5243 12.5755 75.7881 12.7954 74.322 13.6289C73.5907 14.0504 72.7605 14.9509 71.9206 16.0782C72.4763 14.7849 72.8403 13.6161 72.8403 12.7731C72.8403 11.0793 72.1674 9.45486 70.9697 8.25714C69.772 7.05943 68.1476 6.38657 66.4538 6.38657C64.7599 6.38657 63.1355 7.05943 61.9378 8.25714C60.7401 9.45486 60.0672 11.0793 60.0672 12.7731C60.0672 13.6161 60.4312 14.7849 60.9869 16.0782C60.147 14.9509 59.3168 14.0504 58.5855 13.6289C57.1194 12.7954 55.3832 12.5755 53.7556 13.0174C52.128 13.4593 50.7413 14.527 49.898 15.9875C49.0548 17.448 48.8234 19.1828 49.2545 20.8133C49.6856 22.4437 50.7441 23.8375 52.199 24.6904C52.9302 25.1119 54.1245 25.3802 55.52 25.5462C54.1245 25.7123 52.9302 25.9805 52.199 26.402C51.4668 26.8183 50.8242 27.3753 50.3081 28.041C49.7921 28.7066 49.4128 29.4678 49.1921 30.2806C48.9714 31.0935 48.9137 31.9419 49.0223 32.7772C49.1308 33.6124 49.4035 34.4179 49.8247 35.1473C50.2458 35.8767 50.8071 36.5156 51.4761 37.0273C52.1452 37.5389 52.9089 37.9131 53.7231 38.1284C54.5374 38.3437 55.3862 38.3957 56.2207 38.2816C57.0552 38.1675 57.8589 37.8895 58.5855 37.4635C59.3168 37.042 60.147 36.1415 60.9869 35.0143C60.4312 36.3076 60.0672 37.4763 60.0672 38.3193C60.0672 40.0132 60.7401 41.6376 61.9378 42.8353C63.1355 44.033 64.7599 44.7059 66.4538 44.7059C68.1476 44.7059 69.772 44.033 70.9697 42.8353C72.1674 41.6376 72.8403 40.0132 72.8403 38.3193C72.8403 37.4763 72.4763 36.3076 71.9206 35.0143C72.7605 36.1415 73.5907 37.042 74.322 37.4635C75.0486 37.8895 75.8523 38.1675 76.6868 38.2816C77.5213 38.3957 78.3701 38.3437 79.1844 38.1284C79.9986 37.9131 80.7623 37.5389 81.4314 37.0273C82.1004 36.5156 82.6617 35.8767 83.0828 35.1473C83.504 34.4179 83.7767 33.6124 83.8852 32.7772C83.9938 31.9419 83.9361 31.0935 83.7154 30.2806C83.4947 29.4678 83.1154 28.7066 82.5994 28.041C82.0833 27.3753 81.4407 26.8183 80.7085 26.402C79.9773 25.9805 78.783 25.7123 77.3875 25.5462ZM69.647 12.7731C69.6148 12.9945 69.5668 13.2132 69.5033 13.4277C69.3788 13.8493 69.184 14.3698 68.919 14.9733C68.3111 16.3105 67.6321 17.6141 66.8848 18.8787L66.4538 19.6131C66.3086 19.3692 66.1649 19.1244 66.0227 18.8787C65.2754 17.6141 64.5964 16.3105 63.9885 14.9733C63.7623 14.4706 63.5671 13.9544 63.4042 13.4277C63.3408 13.2132 63.2927 12.9945 63.2605 12.7731C63.2605 11.9262 63.5969 11.114 64.1958 10.5151C64.7946 9.91628 65.6068 9.57984 66.4538 9.57984C67.3007 9.57984 68.1129 9.91628 68.7117 10.5151C69.3106 11.114 69.647 11.9262 69.647 12.7731ZM52.6269 17.563C53.0503 16.8296 53.7478 16.2945 54.5658 16.0753C55.3839 15.8561 56.2554 15.9709 56.9889 16.3943C57.1656 16.5333 57.332 16.6849 57.487 16.8477C57.7872 17.1671 58.1385 17.5918 58.528 18.1251C59.3104 19.1884 60.1311 20.5104 60.8974 21.8388L61.3126 22.5797C61.0305 22.5835 60.7484 22.5856 60.4664 22.5861C58.9961 22.601 57.5262 22.537 56.0628 22.3945C55.5151 22.3395 54.9712 22.251 54.4343 22.1294C54.2168 22.0766 54.0033 22.0083 53.7956 21.9251C53.0622 21.5016 52.527 20.8041 52.3079 19.9861C52.0887 19.1681 52.2034 18.2965 52.6269 17.563ZM56.9889 34.6982C56.2558 35.1149 55.3877 35.2249 54.5739 35.0039C53.7601 34.783 53.0668 34.2491 52.6451 33.5189C52.2235 32.7886 52.1078 31.9212 52.3234 31.106C52.5389 30.2908 53.0681 29.5939 53.7956 29.1674C53.7988 29.1674 53.8467 29.1419 53.9457 29.1035C54.0638 29.062 54.2235 29.0141 54.4343 28.963C54.8622 28.8609 55.4082 28.7714 56.0628 28.698C57.5262 28.5555 58.9961 28.4915 60.4664 28.5064C60.7538 28.5064 61.0348 28.5064 61.3158 28.5128C61.1778 28.7606 61.0384 29.0075 60.8974 29.2536C60.1311 30.582 59.3104 31.904 58.528 32.9674C58.2072 33.4147 57.8584 33.8413 57.4838 34.2447C57.3298 34.4074 57.1644 34.5589 56.9889 34.6982ZM69.647 38.3193C69.647 39.1662 69.3106 39.9785 68.7117 40.5773C68.1129 41.1762 67.3007 41.5126 66.4538 41.5126C65.6068 41.5126 64.7946 41.1762 64.1958 40.5773C63.5969 39.9785 63.2605 39.1662 63.2605 38.3193C63.2926 38.0969 63.3407 37.8771 63.4042 37.6615C63.5287 37.2432 63.7235 36.7227 63.9885 36.1192C64.5186 34.9121 65.2531 33.539 66.0227 32.2138L66.4538 31.4793L66.8848 32.2138C67.6544 33.539 68.3857 34.9121 68.919 36.1192C69.184 36.7259 69.3788 37.2432 69.5033 37.6647C69.5683 37.8788 69.6163 38.0977 69.647 38.3193ZM80.2806 17.563C80.7041 18.2965 80.8188 19.1681 80.5996 19.9861C80.3805 20.8041 79.8453 21.5016 79.1119 21.9251C78.9041 22.0082 78.6907 22.0765 78.4732 22.1294C78.0453 22.2316 77.4993 22.321 76.8447 22.3945C75.529 22.5382 73.9771 22.5893 72.4411 22.5861C72.1538 22.5861 71.8727 22.5861 71.5917 22.5797L72.0101 21.8388C72.7764 20.5104 73.5971 19.1884 74.3795 18.1251C74.7003 17.6778 75.0491 17.2511 75.4237 16.8477C75.5706 16.6881 75.6951 16.5731 75.7877 16.4965C75.8707 16.4262 75.9154 16.4007 75.9186 16.3943C76.6521 15.9709 77.5236 15.8561 78.3417 16.0753C79.1597 16.2945 79.8572 16.8296 80.2806 17.563ZM75.9186 34.6982C75.7433 34.5598 75.5779 34.4094 75.4237 34.2479C75.0499 33.8438 74.7012 33.4173 74.3795 32.9706C73.5237 31.7738 72.7327 30.532 72.0101 29.2504C71.8702 29.0043 71.7318 28.7574 71.5949 28.5096L72.4411 28.5032C73.9739 28.5 75.529 28.5511 76.8447 28.6948C77.4993 28.7682 78.0453 28.8577 78.4732 28.9598C78.684 29.0109 78.8437 29.0588 78.9618 29.1003L79.1151 29.1642C79.4812 29.3724 79.8025 29.6509 80.0605 29.9837C80.3185 30.3165 80.5082 30.6971 80.6185 31.1035C80.7289 31.5099 80.7577 31.9342 80.7034 32.3518C80.6492 32.7694 80.5128 33.1722 80.3022 33.5369C80.0917 33.9016 79.811 34.221 79.4765 34.4768C79.142 34.7326 78.7601 34.9197 78.353 35.0274C77.9459 35.135 77.5215 35.1611 77.1042 35.104C76.687 35.047 76.2851 34.908 75.9218 34.695L75.9186 34.6982ZM66.4538 28.7395C65.6068 28.7395 64.7946 28.4031 64.1958 27.8042C63.5969 27.2054 63.2605 26.3931 63.2605 25.5462C63.2605 24.6993 63.5969 23.8871 64.1958 23.2882C64.7946 22.6894 65.6068 22.353 66.4538 22.353C67.3007 22.353 68.1129 22.6894 68.7117 23.2882C69.3106 23.8871 69.647 24.6993 69.647 25.5462C69.647 26.3931 69.3106 27.2054 68.7117 27.8042C68.1129 28.4031 67.3007 28.7395 66.4538 28.7395Z" fill="#34CB78"/>
<g filter="url(#filter0_d_4_159)">
<rect x="34.8571" y="22.8571" width="31.5966" height="5.37815" rx="2.68908" fill="#34CB78"/>
</g>
<rect x="62.4202" y="21.5126" width="8.06723" height="8.06723" rx="4.03361" fill="#1F7A48"/>
<rect x="32.1681" y="22.8571" width="5.37815" height="5.37815" rx="2.68908" fill="#1F7A48"/>
<g clip-path="url(#clip0_4_159)">
<path d="M41.188 22.0508C41.9284 21.4972 42.5207 20.9515 42.7986 20.4708C43.347 19.5063 43.4916 18.364 43.2009 17.2932C42.9101 16.2225 42.2077 15.3102 41.2468 14.7554C40.2859 14.2007 39.1446 14.0485 38.0719 14.3321C36.9993 14.6157 36.0823 15.3121 35.5212 16.2693C35.2432 16.75 35.0664 17.5362 34.9587 18.4547C34.8499 17.5351 34.6728 16.7494 34.3955 16.2691C33.8383 15.3041 32.9206 14.5999 31.8442 14.3114C30.7678 14.023 29.621 14.174 28.6559 14.7312C27.6909 15.2884 26.9867 16.2061 26.6982 17.2825C26.4098 18.3589 26.5608 19.5057 27.118 20.4708C27.3953 20.9511 27.9872 21.4973 28.7292 22.0513C27.8799 21.6854 27.1106 21.4454 26.5553 21.4458C25.4458 21.4531 24.3842 21.899 23.6023 22.6862C22.8203 23.4733 22.3815 24.5378 22.3814 25.6473C22.3814 26.7568 22.8203 27.8213 23.6022 28.6085C24.3842 29.3957 25.4457 29.8416 26.5552 29.849C27.1105 29.8486 27.8792 29.6085 28.7289 29.2441C27.9884 29.7978 27.3962 30.3434 27.1182 30.8241C26.838 31.3022 26.6551 31.8309 26.58 32.3799C26.505 32.929 26.5393 33.4874 26.6809 34.0231C26.8226 34.5588 27.0688 35.0612 27.4054 35.5014C27.742 35.9415 28.1623 36.3108 28.6422 36.5878C29.1221 36.8649 29.652 37.0443 30.2015 37.1157C30.751 37.1871 31.3092 37.1491 31.844 37.0039C32.3787 36.8587 32.8795 36.6092 33.3174 36.2697C33.7553 35.9301 34.1218 35.5074 34.3956 35.0256C34.6736 34.5449 34.8504 33.7588 34.9581 32.8403C35.067 33.7599 35.244 34.5455 35.5214 35.0258C36.0785 35.9909 36.9963 36.6951 38.0726 36.9835C39.149 37.2719 40.2959 37.1209 41.261 36.5638C42.226 36.0066 42.9302 35.0889 43.2186 34.0125C43.507 32.9361 43.3561 31.7892 42.7989 30.8242C42.5216 30.3438 41.9297 29.7977 41.1877 29.2436C42.037 29.6096 42.8063 29.8496 43.3616 29.8492C43.9157 29.8529 44.465 29.7469 44.978 29.5374C45.491 29.3279 45.9575 29.019 46.3506 28.6285C46.7437 28.238 47.0557 27.7736 47.2686 27.262C47.4815 26.7504 47.5912 26.2018 47.5912 25.6476C47.5912 25.0935 47.4816 24.5449 47.2687 24.0333C47.0558 23.5217 46.7438 23.0573 46.3507 22.6668C45.9576 22.2762 45.4911 21.9673 44.9781 21.7578C44.4651 21.5483 43.9158 21.4423 43.3617 21.446C42.8064 21.4464 42.0377 21.6864 41.188 22.0508ZM32.5761 17.3195C32.6306 17.4563 32.6752 17.5967 32.7096 17.7398C32.7773 18.0209 32.8375 18.3815 32.8851 18.8126C32.9786 19.7744 33.0206 20.7405 33.0108 21.7068L33.0068 22.2671C32.8438 22.1759 32.6814 22.0836 32.5195 21.9904C31.6778 21.5158 30.8621 20.9964 30.0759 20.4344C29.7816 20.2224 29.5007 19.9925 29.2346 19.7461C29.1279 19.6447 29.0286 19.5359 28.9374 19.4204C28.6588 18.9378 28.5833 18.3644 28.7275 17.8262C28.8717 17.288 29.2238 16.8292 29.7063 16.5506C30.1889 16.272 30.7623 16.1965 31.3005 16.3407C31.8387 16.4849 32.2975 16.837 32.5761 17.3195ZM24.4545 25.6473C24.4545 25.0902 24.6758 24.5559 25.0698 24.1619C25.4638 23.7679 25.9981 23.5466 26.5553 23.5466C26.7017 23.5677 26.8464 23.5993 26.9883 23.6411C27.2643 23.7243 27.6042 23.8507 28.0016 24.0264C28.7971 24.3749 29.6995 24.8581 30.5732 25.3629L31.0534 25.6485C30.8939 25.7434 30.7339 25.8374 30.5734 25.9305C29.7406 26.4226 28.882 26.8697 28.0014 27.2698C27.6712 27.4187 27.3322 27.5472 26.9863 27.6545C26.845 27.696 26.701 27.7273 26.5552 27.7482C25.9981 27.7481 25.4637 27.5268 25.0698 27.1328C24.6758 26.7388 24.4545 26.2045 24.4545 25.6473ZM32.5763 33.9753C32.2957 34.4539 31.8373 34.8021 31.3009 34.9439C30.7646 35.0857 30.194 35.0096 29.7135 34.7322C29.2331 34.4548 28.8818 33.9987 28.7365 33.4633C28.5911 32.9279 28.6634 32.3568 28.9376 31.8745C28.9394 31.8735 28.9583 31.8432 29.0021 31.7888C29.0557 31.7262 29.131 31.6464 29.2342 31.548C29.4444 31.349 29.7261 31.1185 30.0749 30.8613C30.8618 30.2987 31.6783 29.7787 32.5208 29.3036C32.6846 29.209 32.8447 29.1166 33.0069 29.0278C33.0098 29.2144 33.0116 29.4009 33.0122 29.5875C33.0126 30.5965 32.9799 31.6197 32.8839 32.4829C32.8482 32.8433 32.7899 33.2011 32.7091 33.5541C32.6749 33.6975 32.6305 33.8382 32.5763 33.9753ZM40.9795 31.8746C41.2581 32.3571 41.3336 32.9305 41.1894 33.4687C41.0452 34.0069 40.6931 34.4658 40.2105 34.7444C39.728 35.023 39.1546 35.0985 38.6164 34.9543C38.0782 34.8101 37.6193 34.458 37.3407 33.9754C37.2859 33.8381 37.2409 33.6971 37.2062 33.5534C37.1396 33.2741 37.0793 32.9134 37.0318 32.4824C36.9368 31.6203 36.9035 30.5963 36.9061 29.5882L36.9101 29.0279L37.3973 29.3045C38.2717 29.8064 39.14 30.3482 39.8409 30.8605C40.1915 31.119 40.4727 31.3497 40.6823 31.5489C40.7897 31.6495 40.8891 31.7584 40.9795 31.8746ZM40.2103 16.5507C40.6928 16.8293 41.0449 17.2881 41.1891 17.8263C41.3333 18.3645 41.2578 18.9379 40.9793 19.4204C40.8883 19.5362 40.7891 19.6453 40.6826 19.747C40.4724 19.9459 40.1907 20.1765 39.8419 20.4337C39.1396 20.9483 38.2722 21.4879 37.396 21.9914C37.2323 22.0859 37.0722 22.1784 36.91 22.2671L36.9046 21.7074C36.9043 20.6985 36.937 19.6753 37.033 18.8121C37.0686 18.4517 37.127 18.0939 37.2077 17.7409C37.2389 17.6016 37.272 17.4951 37.2996 17.421C37.3238 17.3536 37.3409 17.3244 37.3406 17.3197C37.6192 16.8372 38.078 16.4851 38.6162 16.3409C39.1544 16.1967 39.7278 16.2721 40.2103 16.5507ZM43.3616 27.7484C43.2162 27.7272 43.0725 27.6959 42.9315 27.6547C42.5856 27.5474 42.2466 27.4191 41.9164 27.2704C41.0351 26.87 40.176 26.4227 39.3426 25.9302C39.182 25.836 39.0219 25.7408 38.8624 25.6447L39.3425 25.3627C40.2147 24.8567 41.1176 24.3742 41.9144 24.0233C42.3115 23.8498 42.6521 23.7212 42.9295 23.6386C43.0664 23.5984 43.1731 23.5732 43.2541 23.558L43.3624 23.5439C43.6395 23.5421 43.9141 23.5951 44.1706 23.6998C44.4271 23.8046 44.6604 23.959 44.8569 24.1543C45.0535 24.3496 45.2095 24.5818 45.3159 24.8376C45.4224 25.0934 45.4772 25.3677 45.4772 25.6447C45.4772 25.9218 45.4223 26.1961 45.3159 26.4519C45.2094 26.7077 45.0534 26.9399 44.8569 27.1352C44.6603 27.3304 44.4271 27.4849 44.1706 27.5896C43.9141 27.6944 43.6394 27.7474 43.3624 27.7455L43.3616 27.7484ZM36.0089 27.4669C35.5263 27.7454 34.9529 27.8209 34.4147 27.6767C33.8765 27.5325 33.4176 27.1804 33.1391 26.6979C32.8605 26.2154 32.785 25.6419 32.9292 25.1037C33.0734 24.5656 33.4255 24.1067 33.908 23.8281C34.3905 23.5495 34.964 23.474 35.5022 23.6182C36.0404 23.7624 36.4992 24.1145 36.7778 24.5971C37.0564 25.0796 37.1319 25.653 36.9877 26.1912C36.8435 26.7294 36.4914 27.1883 36.0089 27.4669Z" fill="#2AA260"/>
</g>
<defs>
<filter id="filter0_d_4_159" x="32.8571" y="20.8571" width="35.5966" height="9.37814" filterUnits="userSpaceOnUse" color-interpolation-filters="sRGB">
<feFlood flood-opacity="0" result="BackgroundImageFix"/>
<feColorMatrix in="SourceAlpha" type="matrix" values="0 0 0 0 0 0 0 0 0 0 0 0 0 0 0 0 0 0 127 0" result="hardAlpha"/>
<feOffset/>
<feGaussianBlur stdDeviation="1"/>
<feComposite in2="hardAlpha" operator="out"/>
<feColorMatrix type="matrix" values="0 0 0 0 0 0 0 0 0 0 0 0 0 0 0 0 0 0 0.25 0"/>
<feBlend mode="normal" in2="BackgroundImageFix" result="effect1_dropShadow_4_159"/>
<feBlend mode="normal" in="SourceGraphic" in2="effect1_dropShadow_4_159" result="shape"/>
</filter>
<clipPath id="clip0_4_159">
<rect width="33.6134" height="33.6134" fill="white" transform="translate(12 19.4958) rotate(-30)"/>
</clipPath>
</defs>
</svg>
